<svg xmlns="http://www.w3.org/2000/svg" version="1" height="24" width="24"><defs><clipPath id="a"><path fill="#00f" fill-rule="evenodd" stroke="#000" stroke-width="1.1" d="M3 2.6h243.4v317.7H3z"/></clipPath></defs><g clip-path="url(#a)" transform="translate(2.894 -.226) scale(.07564)"><path d="M82.6 243.3s-12 7.3 8.3 9.4c24 3 37 2.6 64-2.6 0 0 7 5 17 9-61 26-138-1-90-15zm-7.8-33.7s-13 9.8 7.3 12c27 2.5 48 3 84-4.2 0 0 5 5.2 13 7.8-74 21.8-156 2-104-15.6zM218 268.8s9 7.2-9.8 13c-34.7 10.3-145.8 13.4-177 0-11-4.7 10-11.5 16.6-12.5 6.8-1.6 10.4-1.6 10.4-1.6-12-8.3-79.4 17-34.2 24.4 124 21 226.3-8 194-23zM88.4 174.3S31.8 187.8 68 192.5c15.7 2 46.3 1.5 74.8-.6 23.4-2 46.8-7 46.8-7s-8.3 3-14 7C118 208 7.4 201 39 185c27-13 49.3-11 49.3-11zM189.6 231c58-30.2 31-59.3 12.4-55.7-4.7 1-6.7 2-6.7 2s1.5-3 5.2-4c36.8-13 66 39-12 59 0 0 .5-.4 1-1.4zM94 313c56 3.5 141.8-2.2 143.8-28.7 0 0-4 10.4-46.2 18.2-47.7 8.8-107 7.8-141.7 2 0 0 7 6.3 44 8.4z" fill="#4e7896"/><path d="M154.3 3s32 32.7-30.7 82c-50.3 40-11.4 62.8 0 88.8-29.6-26.5-50.8-50-36.3-71.7 21.3-32 80-47 67-99zm-16.7 149c15 17-4 32.7-4 32.7s38.3-19.8 20.7-44.2c-16-23.3-28.6-34.7 39-73.7 0 0-106.5 26.5-55.7 85.2zM99.2 430.7v-51C99.2 367 92 358 73.8 358c-10.4 0-19.2 2.6-27 5.7l2.6 9.4c5.7-2 13-4 20.8-4 9.8 0 14.5 4 14.5 13v7h-5.2c-25 0-36.3 10-36.3 25 0 12 7.8 19.7 21.8 19.7 8.8 0 15.6-4 21.8-9.3l1 7.8h11.4zM84.7 414c-5.2 4.8-11 7.4-16 7.4-6.8 0-11-4.2-11-11.5s4.3-13 20.8-13h6.2v17zm63.3 16.7h-18l-22-71h15.6L137 403l3.2 13c6.8-18.7 12-38 14-56.6H170c-4 23.4-11.4 48.8-21.8 71zm84 0v-51c0-12.8-7-21.7-25.3-21.7-10.4 0-19.2 2.6-27 5.7l2 9.4c6.3-2 13.6-4 21.4-4 10 0 15 4 15 13v7h-5c-25 0-36 10-36 25 0 12.7 8 20 22 20 9.6 0 16-4 22.6-9.3l1 7.8h11zM217.7 414c-5.2 4.8-11 7.4-16 7.4-7 0-11-4.2-11-11.5s4-13 20.8-13h6.2v17zM27 442.7c-4 6.3-10.3 11-18 13.5L2 448c5.2-3 10.3-7.7 12.4-12 2-3.5 2.6-8.7 2.6-20.7v-80.8h15.6v80c0 16-1.6 22.2-5.7 28.4z" fill="#f58219"/></g></svg>